<svg xmlns="http://www.w3.org/2000/svg" viewBox="0 0 325.31 69.54"><path d="M55.33 13.11V7.94H52v5.17h-2.32V1.52H52V6h3.33V1.52h2.37v11.59h-2.37zM66.85 13.11L66 10.36h-3.4l-.82 2.75h-2.39l3.8-11.63h2.51l3.65 11.63h-2.5zm-2-7c-.13-.56-.48-2.11-.48-2.11s-.37 1.4-.55 2.27-.37 1.38-.62 2.15h2.27s-.38-1.21-.63-2.33zM76.7 13.11c-.45-.77-.63-1.08-1.08-1.9-1.15-2.09-1.5-2.65-1.92-2.84a1.13 1.13 0 0 0-.37-.1v4.84h-2.28V1.52h4.32a3.21 3.21 0 0 1 3.4 3.4 3 3 0 0 1-2.58 3.2 2.22 2.22 0 0 1 .48.48c.67.83 2.78 4.5 2.78 4.5H76.7zm-1.22-9.56a4.22 4.22 0 0 0-1.32-.17h-.83v3.14h.78a2.45 2.45 0 0 0 1.75-.38A1.58 1.58 0 0 0 76.32 5a1.35 1.35 0 0 0-.84-1.45zM86 13.19h-2.12L79.95 1.52h2.55l1.92 6c.17.52.35 1.17.53 2a22.29 22.29 0 0 1 .67-2.32l2-5.74H90zM96.94 13.11l-.82-2.75h-3.4l-.82 2.75h-2.42l3.8-11.63h2.52l3.65 11.63h-2.5zm-2-7c-.13-.56-.48-2.11-.48-2.11s-.33 1.37-.55 2.23-.37 1.38-.62 2.15h2.27s-.39-1.17-.64-2.29zM106.79 13.11c-.45-.77-.63-1.08-1.08-1.9-1.15-2.09-1.5-2.65-1.92-2.84a1.14 1.14 0 0 0-.37-.1v4.84h-2.28V1.52h4.32a3.21 3.21 0 0 1 3.4 3.4 3 3 0 0 1-2.58 3.2 2.22 2.22 0 0 1 .48.48c.67.83 2.78 4.5 2.78 4.5h-2.75zm-1.22-9.56a4.21 4.21 0 0 0-1.32-.17h-.83v3.14h.78a2.45 2.45 0 0 0 1.8-.38 1.58 1.58 0 0 0 .4-1.14 1.35 1.35 0 0 0-.83-1.45zM118.83 11.38A4 4 0 0 1 116 13c-.43 0-1 .07-1.66.07h-2.82V1.52h2.33c.66 0 1.55 0 2 .07a3.93 3.93 0 0 1 2.53 1.15A6.12 6.12 0 0 1 120 7.36a6.63 6.63 0 0 1-1.17 4.02zm-2-7.05a1.92 1.92 0 0 0-1.83-1h-1.1v7.86h1.25c1.53 0 2.23-1.19 2.23-3.64a6.5 6.5 0 0 0-.58-3.23zM123.8 13.11V.8h2.08v12.31h-2.08zm6.24 0l-4.14-6.56 4-5.75h2.52l-4.26 5.71 4.55 6.6H130zM135.21 9.14v.15c0 1.25.46 2.56 2.22 2.56a3.32 3.32 0 0 0 2.24-.89l.76 1.19a4.85 4.85 0 0 1-3.23 1.19c-2.54 0-4.14-1.83-4.14-4.71a4.92 4.92 0 0 1 1.12-3.52 3.42 3.42 0 0 1 2.76-1.21 3.47 3.47 0 0 1 2.47.92c.78.71 1.17 1.81 1.17 3.91v.41h-5.37zm1.73-3.77c-1.1 0-1.71.87-1.71 2.33h3.32c0-1.46-.64-2.33-1.61-2.33zM147.63 13.11v-6c0-1.23-.29-1.57-1-1.57a3.27 3.27 0 0 0-2 1v6.53h-1.92V6.49a5.35 5.35 0 0 0-.34-2.13l1.78-.5a2.65 2.65 0 0 1 .32 1.28 4.19 4.19 0 0 1 2.75-1.25 2.22 2.22 0 0 1 2.35 2.49v6.72h-1.94zM157.34 13.11v-6c0-1.23-.28-1.57-1-1.57a3.26 3.26 0 0 0-2 1v6.53h-1.92V6.49a5.34 5.34 0 0 0-.34-2.13l1.78-.5a2.63 2.63 0 0 1 .32 1.28 4.19 4.19 0 0 1 2.75-1.25 2.22 2.22 0 0 1 2.35 2.49v6.72h-1.94zM163.73 9.14v.15c0 1.25.46 2.56 2.22 2.56a3.32 3.32 0 0 0 2.24-.89l.81 1.19a4.85 4.85 0 0 1-3.24 1.19c-2.54 0-4.14-1.83-4.14-4.71a4.91 4.91 0 0 1 1.12-3.52 3.42 3.42 0 0 1 2.75-1.21 3.47 3.47 0 0 1 2.47.92c.78.71 1.17 1.81 1.17 3.91v.41h-5.37zm1.72-3.77c-1.1 0-1.71.87-1.71 2.33h3.32c.01-1.46-.63-2.33-1.6-2.33zM176.74 13.11a2.28 2.28 0 0 1-.16-.69 2.94 2.94 0 0 1-2.2.89c-2.29 0-3.68-1.8-3.68-4.61s1.56-4.75 3.73-4.75a2.54 2.54 0 0 1 1.94.82s-.05-.69-.05-1.48V0l1.94.3V10a10 10 0 0 0 .29 3.13h-1.79zm-.43-6.87a2.13 2.13 0 0 0-1.63-.73c-1.24 0-1.81 1-1.81 3.17 0 2 .39 3 1.87 3a1.87 1.87 0 0 0 1.58-.85V6.24zM185 13.31c-.75 2.17-1.39 3.25-3.5 3.64l-.64-1.26a3.1 3.1 0 0 0 2.43-2.58h-.62c-.25-1-.59-2-.85-2.79l-2-6.06 2-.34 1.65 5.48c.14.53.46 1.88.5 2 0-.07.34-1.35.68-2.44l1.49-4.87h2.1zM194.78 13.34a7.87 7.87 0 0 1-4-1.1l.78-1.56a6.29 6.29 0 0 0 3.32 1c1.51 0 2.42-.73 2.42-2 0-.91-.57-1.48-1.83-1.83l-1.32-.37A4 4 0 0 1 191.74 6a3.1 3.1 0 0 1-.52-1.8c0-2.17 1.71-3.65 4.18-3.65a6.83 6.83 0 0 1 3.89 1.17l-.92 1.44a5.29 5.29 0 0 0-2.9-.94 1.75 1.75 0 0 0-2 1.67c0 .77.42 1.16 1.64 1.51l1.46.43c1.78.52 3 1.65 3 3.5.01 2.11-1.65 4.01-4.79 4.01zM205 13.34c-2.45 0-3.82-1.72-3.82-4.62 0-3.27 2-4.84 4-4.84a3.27 3.27 0 0 1 2.49 1l-1 1.3a2.2 2.2 0 0 0-1.51-.7 1.53 1.53 0 0 0-1.42.91 6.07 6.07 0 0 0-.37 2.51 3.63 3.63 0 0 0 .6 2.45 1.58 1.58 0 0 0 1.19.52 2.59 2.59 0 0 0 1.81-.89l.92 1.19a3.75 3.75 0 0 1-2.89 1.17zM214.66 13.11V7c0-1.12-.39-1.44-1.14-1.44a3.33 3.33 0 0 0-2.17 1.1v6.46h-2V2.4a9.48 9.48 0 0 0-.17-2l2-.43a9.68 9.68 0 0 1 .18 2.12V5.06a4 4 0 0 1 2.75-1.17A2.43 2.43 0 0 1 216.26 5a3.44 3.44 0 0 1 .3 1.76v6.35h-1.9zM222.75 13.34c-2.44 0-4-1.83-4-4.71s1.55-4.73 3.93-4.73c2.56 0 4 1.9 4 4.75s-1.5 4.69-3.93 4.69zm0-8c-1.24 0-1.78.94-1.78 3.13 0 2.61.66 3.38 1.83 3.38s1.79-.94 1.79-3.2c-.01-2.51-.72-3.28-1.86-3.28zM232.29 13.34c-2.44 0-4-1.83-4-4.71s1.55-4.73 3.93-4.73c2.56 0 4 1.9 4 4.75s-1.5 4.69-3.93 4.69zm0-8c-1.24 0-1.78.94-1.78 3.13 0 2.61.66 3.38 1.83 3.38s1.79-.94 1.79-3.2c-.01-2.51-.72-3.28-1.86-3.28zM240.38 13.31c-2 0-2-1.78-2-2.54V3.1a14.54 14.54 0 0 0-.18-2.63l2-.44a11 11 0 0 1 .16 2.47v7.63a2.79 2.79 0 0 0 .2 1.62.55.55 0 0 0 .64.14l.32 1.21a3.05 3.05 0 0 1-1.14.21z"/><path fill="none" stroke="#ac162c" stroke-width=".5" d="M49.69 19.76H242.3"/><g><path d="M59 47.59c-.66 0-1.53.06-2.67.06h-6.56V26.8h7c2.55 0 3.87.39 5.13 1.5a4.66 4.66 0 0 1 1.76 3.7 4.61 4.61 0 0 1-1.41 3.48 4 4 0 0 1-1.92 1.08 5.19 5.19 0 0 1 4.14 5.25A5.49 5.49 0 0 1 59 47.59zm-.92-16.95a4.21 4.21 0 0 0-1.74-.27h-2.43v4.77h2.49a3.89 3.89 0 0 0 1.8-.27 2.66 2.66 0 0 0 1.08-2.13 2.26 2.26 0 0 0-1.2-2.1zm.12 8.13a4.91 4.91 0 0 0-1.62-.18H54v5.64h2.7a3 3 0 0 0 2-.48 3.15 3.15 0 0 0 1.08-2.43 2.54 2.54 0 0 0-1.58-2.55zM67.56 47.65V26.8h11.88l-.54 3.42h-7.14V35h6v3.42h-5.94V44h7.89v3.6H67.56zM93.44 47.65h-11V26.8h4.29v17.37h7.47zM107 30.19h-6.63V35h5.31v3.42h-5.31v9.27h-4.2V26.8h11.31zM109.33 47.65V26.8h11.88l-.54 3.42h-7.14V35h6v3.42h-5.91V44h7.89v3.6h-12.18zM134.38 47.65c-.81-1.38-1.14-1.95-2-3.42-2.07-3.75-2.7-4.77-3.45-5.1a2.14 2.14 0 0 0-.66-.18v8.7h-4.11V26.8H132a5.78 5.78 0 0 1 6.12 6.12c0 3.12-2.07 5.7-4.65 5.76a4 4 0 0 1 .87.87c1.2 1.5 5 8.1 5 8.1h-5zm-2.19-17.19a7.57 7.57 0 0 0-2.37-.3h-1.5v5.64h1.41c1.8 0 2.58-.18 3.15-.69a2.85 2.85 0 0 0 .81-2.1 2.44 2.44 0 0 0-1.51-2.55zM156.7 48a8.51 8.51 0 0 1-6.81-2.88 10.88 10.88 0 0 1-2.52-7.47 13.35 13.35 0 0 1 1.41-6.48 9 9 0 0 1 8-4.83A8.53 8.53 0 0 1 162 28l-1.89 2.85a5.49 5.49 0 0 0-3.33-1.17 4.32 4.32 0 0 0-3.54 1.8c-.81 1.2-1.17 2.94-1.17 5.37 0 2.85.24 4.44.87 5.58a4.33 4.33 0 0 0 4 2.34 5.39 5.39 0 0 0 3.57-1.35l1.92 2.64A8.51 8.51 0 0 1 156.7 48zM164.8 47.65V26.8h11.88l-.54 3.42H169V35h6v3.42h-5.91V44H177v3.6h-12.2zM189.79 47.65l-3.57-8c-1.17-2.61-2.43-5.55-2.82-6.84.15 1.71.18 4.17.21 5.91l.12 8.91h-4V26.8h4.65l4 8.34a40.19 40.19 0 0 1 2.21 5.86c-.15-1.62-.3-4.29-.33-5.73l-.09-8.52h4v20.9h-4.38zM210.53 30.28h-5v17.37h-4.26V30.28h-5.1V26.8h15zM212.81 47.65V26.8h11.88l-.54 3.42H217V35h6v3.42h-5.91V44H225v3.6h-12.19zM237.85 47.65c-.81-1.38-1.14-1.95-2-3.42-2.07-3.75-2.7-4.77-3.45-5.1a2.14 2.14 0 0 0-.66-.18v8.7h-4.11V26.8h7.77a5.78 5.78 0 0 1 6.12 6.12c0 3.12-2.07 5.7-4.65 5.76a4 4 0 0 1 .87.87c1.2 1.5 5 8.1 5 8.1h-5zm-2.19-17.19a7.58 7.58 0 0 0-2.37-.3h-1.5v5.64h1.41c1.8 0 2.58-.18 3.15-.69a2.85 2.85 0 0 0 .81-2.1 2.44 2.44 0 0 0-1.5-2.55zM54.07 57.06a2.49 2.49 0 0 0-1.16-.34 1.17 1.17 0 0 0-1.18 1.35v1.46h2.51L53.71 61h-2v8.17h-2.03V61h-.89v-1.47h.93s-.06-.53-.06-1.42a2.67 2.67 0 0 1 2.93-2.93 4.18 4.18 0 0 1 2.17.55zM58.67 69.39c-2.6 0-4.24-2-4.24-5s1.65-5.05 4.2-5.05c2.74 0 4.29 2 4.29 5.07s-1.65 4.98-4.25 4.98zm0-8.51c-1.33 0-1.9 1-1.9 3.34 0 2.79.7 3.61 2 3.61s1.92-1 1.92-3.42c-.07-2.71-.83-3.53-2.04-3.53zM69.29 61.36a1.58 1.58 0 0 0-.59-.13 1.9 1.9 0 0 0-1.8 1.43v6.5h-2.09v-6.8a7.65 7.65 0 0 0-.34-2.58l1.92-.49a3.39 3.39 0 0 1 .36 1.52 3 3 0 0 1 2.45-1.54 1.58 1.58 0 0 1 .74.15zM78.62 69.39a8.41 8.41 0 0 1-4.31-1.18l.84-1.67a6.71 6.71 0 0 0 3.55 1.08c1.62 0 2.58-.78 2.58-2.09 0-1-.61-1.58-2-2l-1.41-.4a4.31 4.31 0 0 1-2.55-1.58 3.31 3.31 0 0 1-.55-1.92c0-2.32 1.82-3.89 4.46-3.89A7.31 7.31 0 0 1 83.44 57l-1 1.54a5.66 5.66 0 0 0-3.1-1 1.87 1.87 0 0 0-2.15 1.79c0 .82.46 1.23 1.75 1.62l1.56.46c1.9.55 3.23 1.77 3.23 3.74.02 2.21-1.73 4.24-5.11 4.24zM89.3 69.39c-2.62 0-4.08-1.84-4.08-4.94 0-3.5 2.09-5.17 4.24-5.17a3.5 3.5 0 0 1 2.66 1l-1 1.39a2.36 2.36 0 0 0-1.67-.67 1.63 1.63 0 0 0-1.52 1 6.49 6.49 0 0 0-.4 2.68 3.87 3.87 0 0 0 .65 2.62 1.69 1.69 0 0 0 1.27.55 2.77 2.77 0 0 0 1.94-1l1 1.27a4 4 0 0 1-3.09 1.27zM94.89 58.11a1.36 1.36 0 0 1-1.35-1.39 1.38 1.38 0 1 1 1.35 1.39zm-1 11v-9.42l2.11-.38v9.84h-2.16zM100.21 64.91v.15c0 1.33.49 2.74 2.38 2.74a3.54 3.54 0 0 0 2.39-1l.82 1.27a5.19 5.19 0 0 1-3.46 1.27c-2.72 0-4.43-2-4.43-5a5.24 5.24 0 0 1 1.2-3.76 3.66 3.66 0 0 1 2.94-1.29 3.71 3.71 0 0 1 2.64 1c.84.76 1.25 1.94 1.25 4.18v.44h-5.74zm1.84-4c-1.18 0-1.82.93-1.82 2.49h3.55c0-1.59-.69-2.52-1.73-2.52zM113.05 69.15v-6.39c0-1.31-.3-1.67-1.1-1.67a3.49 3.49 0 0 0-2.11 1.08v7h-2.05v-7.09a5.67 5.67 0 0 0-.36-2.28l1.9-.53a2.81 2.81 0 0 1 .34 1.37 4.48 4.48 0 0 1 2.94-1.33 2.37 2.37 0 0 1 2.51 2.69v7.18h-2.07zM121.14 69.39c-2.62 0-4.08-1.84-4.08-4.94 0-3.5 2.09-5.17 4.24-5.17a3.5 3.5 0 0 1 2.66 1l-1 1.39a2.36 2.36 0 0 0-1.62-.74 1.63 1.63 0 0 0-1.52 1 6.49 6.49 0 0 0-.4 2.68 3.87 3.87 0 0 0 .65 2.62 1.69 1.69 0 0 0 1.27.55 2.77 2.77 0 0 0 1.94-1l1 1.27a4 4 0 0 1-3.14 1.34zM127.31 64.91v.15c0 1.33.49 2.74 2.37 2.74a3.54 3.54 0 0 0 2.39-1l.82 1.27a5.19 5.19 0 0 1-3.46 1.27c-2.72 0-4.43-2-4.43-5a5.25 5.25 0 0 1 1.2-3.76 3.66 3.66 0 0 1 2.95-1.29 3.71 3.71 0 0 1 2.64 1c.84.76 1.25 1.94 1.25 4.18v.44h-5.74zm1.84-4c-1.18 0-1.82.93-1.82 2.49h3.55c0-1.59-.69-2.52-1.73-2.52zM145.51 69.54a2.25 2.25 0 0 1-1.31-1.29 3.27 3.27 0 0 1-2.64 1.18c-2.2 0-3.19-1.21-3.19-2.89 0-2.22 1.67-3.34 4.75-3.34h.65v-.51c0-1.1-.19-1.69-1.33-1.69a5.81 5.81 0 0 0-2.87 1.1l-.93-1.5a7.21 7.21 0 0 1 4.08-1.31 2.83 2.83 0 0 1 2.93 1.6 6.65 6.65 0 0 1 .15 2.36v2.76c0 1.29.09 1.71.84 2.22zm-2.17-4.94c-2.09 0-2.72.61-2.72 1.82a1.3 1.3 0 0 0 1.38 1.49 2.17 2.17 0 0 0 1.73-1v-2.28zM153.54 69.15v-6.39c0-1.31-.3-1.67-1.1-1.67a3.49 3.49 0 0 0-2.11 1.08v7h-2.05v-7.09a5.67 5.67 0 0 0-.36-2.28l1.9-.53a2.81 2.81 0 0 1 .34 1.37 4.48 4.48 0 0 1 2.94-1.33 2.37 2.37 0 0 1 2.51 2.69v7.18h-2.07zM164 69.15a2.38 2.38 0 0 1-.17-.74 3.15 3.15 0 0 1-2.36.95c-2.45 0-3.93-1.92-3.93-4.92s1.67-5.07 4-5.07a2.72 2.72 0 0 1 2.07.87s-.06-.74-.06-1.58v-3.51l2.07.32V65.8a10.74 10.74 0 0 0 .3 3.34H164zm-.46-7.33a2.28 2.28 0 0 0-1.74-.82c-1.33 0-1.94 1.06-1.94 3.38 0 2.13.42 3.19 2 3.19a2 2 0 0 0 1.69-.91v-4.85zM172.36 69.15V56h2.24v13.15h-2.24zM182.47 69.15v-6.39c0-1.31-.3-1.67-1.1-1.67a3.49 3.49 0 0 0-2.11 1.08v7h-2.05v-7.09a5.69 5.69 0 0 0-.36-2.28l1.9-.53a2.81 2.81 0 0 1 .34 1.37 4.49 4.49 0 0 1 2.91-1.33 2.37 2.37 0 0 1 2.54 2.69v7.18h-2.07zM189.59 69.39a2.23 2.23 0 0 1-2.51-2.47V61H186v-1.47h1.06a18.92 18.92 0 0 1 .1-2.37l2.15-.51a26.38 26.38 0 0 0-.17 2.89h2.3L190.9 61h-1.77v5.39c0 1.2.27 1.54 1.18 1.54a2.44 2.44 0 0 0 .89-.19l.27 1.26a4.45 4.45 0 0 1-1.88.39zM194.43 64.91v.15c0 1.33.49 2.74 2.38 2.74a3.54 3.54 0 0 0 2.39-1l.8 1.32a5.19 5.19 0 0 1-3.46 1.27c-2.72 0-4.43-2-4.43-5a5.24 5.24 0 0 1 1.2-3.76 3.66 3.66 0 0 1 2.94-1.29 3.71 3.71 0 0 1 2.64 1c.84.76 1.25 1.94 1.25 4.18v.44h-5.74zm1.84-4c-1.18 0-1.82.93-1.82 2.49H198c0-1.59-.68-2.52-1.72-2.52zM206.53 61.36a1.58 1.58 0 0 0-.59-.13 1.9 1.9 0 0 0-1.8 1.43v6.5H202v-6.8a7.65 7.65 0 0 0-.34-2.58l1.92-.49a3.39 3.39 0 0 1 .36 1.52 3 3 0 0 1 2.45-1.54 1.58 1.58 0 0 1 .74.15zM213.79 69.15v-6.39c0-1.31-.3-1.67-1.1-1.67a3.49 3.49 0 0 0-2.11 1.08v7h-2.05v-7.09a5.69 5.69 0 0 0-.36-2.28l1.9-.53a2.81 2.81 0 0 1 .34 1.37 4.49 4.49 0 0 1 2.94-1.33 2.37 2.37 0 0 1 2.51 2.69v7.18h-2.07zM224.86 69.54a2.25 2.25 0 0 1-1.31-1.29 3.27 3.27 0 0 1-2.64 1.18c-2.2 0-3.19-1.21-3.19-2.89 0-2.22 1.67-3.34 4.75-3.34h.65v-.51c0-1.1-.19-1.69-1.33-1.69a5.81 5.81 0 0 0-2.87 1.1l-.92-1.5a7.21 7.21 0 0 1 4.08-1.31 2.83 2.83 0 0 1 2.93 1.6 6.64 6.64 0 0 1 .15 2.36v2.76c0 1.29.09 1.71.84 2.22zm-2.17-4.94c-2.09 0-2.72.61-2.72 1.82a1.3 1.3 0 0 0 1.33 1.48 2.17 2.17 0 0 0 1.73-1v-2.28zM230.19 69.39a2.23 2.23 0 0 1-2.51-2.47V61h-1.06v-1.47h1.06a18.92 18.92 0 0 1 .1-2.37l2.15-.51a26.38 26.38 0 0 0-.17 2.89h2.3L231.5 61h-1.77v5.39c0 1.2.27 1.54 1.18 1.54a2.44 2.44 0 0 0 .89-.19l.27 1.26a4.45 4.45 0 0 1-1.88.39zM234.58 58.11a1.36 1.36 0 0 1-1.35-1.39 1.38 1.38 0 1 1 1.35 1.39zm-1 11v-9.42l2.11-.38v9.84h-2.11zM241.74 69.39c-2.6 0-4.24-2-4.24-5s1.65-5.05 4.2-5.05c2.74 0 4.29 2 4.29 5.07s-1.64 4.98-4.25 4.98zm0-8.51c-1.33 0-1.9 1-1.9 3.34 0 2.79.7 3.61 2 3.61s1.92-1 1.92-3.42c-.06-2.71-.82-3.53-2.04-3.53zM253.15 69.15v-6.39c0-1.31-.3-1.67-1.1-1.67a3.49 3.49 0 0 0-2.11 1.08v7h-2.05v-7.09a5.69 5.69 0 0 0-.36-2.28l1.9-.53a2.81 2.81 0 0 1 .34 1.37 4.49 4.49 0 0 1 2.94-1.33 2.37 2.37 0 0 1 2.51 2.69v7.18h-2.07zM264.22 69.54a2.25 2.25 0 0 1-1.31-1.29 3.27 3.27 0 0 1-2.64 1.18c-2.2 0-3.19-1.21-3.19-2.89 0-2.22 1.67-3.34 4.75-3.34h.65v-.51c0-1.1-.19-1.69-1.33-1.69a5.81 5.81 0 0 0-2.87 1.1l-.93-1.5a7.21 7.21 0 0 1 4.08-1.31 2.83 2.83 0 0 1 2.93 1.6 6.64 6.64 0 0 1 .15 2.36v2.76c0 1.29.09 1.71.84 2.22zm-2.17-4.94c-2.09 0-2.72.61-2.72 1.82a1.3 1.3 0 0 0 1.33 1.48 2.17 2.17 0 0 0 1.73-1v-2.28zM269.06 69.35c-2.11 0-2.11-1.9-2.11-2.72v-8.18a15.57 15.57 0 0 0-.19-2.81l2.15-.48a11.6 11.6 0 0 1 .17 2.64V66c0 1.29.06 1.5.21 1.73a.59.59 0 0 0 .68.15l.34 1.29a3.28 3.28 0 0 1-1.25.18zM282.91 69.15l-1.06-3.46h-4.26l-1.06 3.46h-2.26L278.58 56h2.53l4.2 13.16h-2.39zm-3.12-11s-1.35 4.83-1.65 5.7h3.23c-.15-.27-1.48-5.17-1.57-5.68zM291 57.06a2.49 2.49 0 0 0-1.16-.34 1.17 1.17 0 0 0-1.18 1.35v1.46h2.51l-.52 1.47h-2v8.17h-2.07V61h-.89v-1.47h.93s-.06-.53-.06-1.42a2.67 2.67 0 0 1 2.93-2.93 4.19 4.19 0 0 1 2.16.55zM297.18 57.06a2.49 2.49 0 0 0-1.16-.34 1.17 1.17 0 0 0-1.18 1.35v1.46h2.51l-.53 1.47h-2v8.17h-2.07V61h-.85v-1.47h.93s-.06-.53-.06-1.42a2.67 2.67 0 0 1 2.93-2.93 4.19 4.19 0 0 1 2.17.55zM305 69.54a2.26 2.26 0 0 1-1.31-1.29 3.26 3.26 0 0 1-2.64 1.18c-2.2 0-3.19-1.21-3.19-2.89 0-2.22 1.67-3.34 4.75-3.34h.65v-.51c0-1.1-.19-1.69-1.33-1.69a5.81 5.81 0 0 0-2.87 1.1l-.93-1.5a7.21 7.21 0 0 1 4.08-1.31 2.83 2.83 0 0 1 2.93 1.6 6.64 6.64 0 0 1 .15 2.36v2.76c0 1.29.09 1.71.84 2.22zm-2.17-4.94c-2.09 0-2.72.61-2.72 1.82a1.3 1.3 0 0 0 1.33 1.48 2.17 2.17 0 0 0 1.73-1v-2.28zM308.83 58.11a1.36 1.36 0 0 1-1.35-1.39 1.38 1.38 0 1 1 1.35 1.39zm-1 11v-9.42l2.11-.38v9.84h-2.11zM316.85 61.36a1.58 1.58 0 0 0-.59-.13 1.9 1.9 0 0 0-1.8 1.43v6.5h-2.09v-6.8a7.65 7.65 0 0 0-.34-2.58l1.92-.49a3.39 3.39 0 0 1 .36 1.52 3 3 0 0 1 2.45-1.54 1.58 1.58 0 0 1 .74.15zM321.41 69.41a7.75 7.75 0 0 1-3.69-1.06l.74-1.5a6.71 6.71 0 0 0 3.12 1 1.4 1.4 0 0 0 1.56-1.35c0-.74-.47-1.12-1.56-1.35l-1.16-.25a2.63 2.63 0 0 1-2.3-2.64c0-1.8 1.44-3.06 3.57-3.06a6.6 6.6 0 0 1 3.17.84l-.68 1.44a4.87 4.87 0 0 0-2.36-.7 1.28 1.28 0 0 0-1.45 1.22c0 .59.32.89 1.29 1.14l1.2.3c1.94.49 2.45 1.56 2.45 2.68 0 1.96-1.58 3.29-3.9 3.29z"/></g><g><path d="M20.18 47.69s-15.8-8.28-19.12-26C-.4 13.91.06 1.51.06 1.51h40.1s.47 12.4-1 20.18c-3.32 17.72-19 26-19 26" fill-rule="evenodd"/><path d="M20.16 47.22s-15.3-8.6-18.52-25.75C.23 13.94.64 1.93.64 1.93h38.8s.46 12-1 19.54c-3.11 17.15-18.28 25.75-18.28 25.75" fill="#fff" fill-rule="evenodd"/><path d="M20.17 47.09S4.88 38.49 1.66 21.33C.25 13.8.71 1.8.71 1.8h38.8s.46 12-1 19.54c-3.17 17.15-18.34 25.75-18.34 25.75" fill="#fff" fill-rule="evenodd"/><path d="M20.17 47.09S4.88 38.49 1.66 21.33C.25 13.8.71 1.8.71 1.8h38.8s.46 12-1 19.54c-3.17 17.15-18.34 25.75-18.34 25.75z" fill="none" stroke="#000" stroke-miterlimit="3.864" stroke-width=".468"/><path fill="#ac162c" fill-rule="evenodd" d="M12.38 41.04l15.48-.01-1.73 1.7-1.13.92-9.73.01-1.25-1.13-1.64-1.49M8.2 36.14h23.86l-1.04 1.46-.84.93-20.03.01-.96-1.07-.99-1.33M5.21 31.27h29.85l-1.37 2.39H6.58l-.83-1.25-.54-1.14M1.69 21.39l.24 1.31.3 1.07 35.87-.02.24-1.19.24-1.19-36.89.02M.65 2h38.89l-.15 5.83-.03 5.76H.83l-.12-2.3-.09-4.47L.65 2M3 26.26l.81 2.48 32.48-.01.98-2.47H3M1.05 16.28h38.19l-.09 1.28-.18 1.31-37.65-.01-.23-1.59-.04-.99"/><path d="M20.16 47.22s-15.3-8.6-18.52-25.75C.23 13.94.64 1.93.64 1.93h38.8s.46 12-1 19.54c-3.11 17.15-18.28 25.75-18.28 25.75z" fill="none" stroke="#000" stroke-miterlimit="3.864" stroke-width=".468"/><path fill="none" stroke="#000" stroke-miterlimit="3.864" stroke-width=".344" d="M.81 13.66H39.3M1.17 18.85h37.78M38.56 21.35H1.53M2.12 23.73h35.86M37.29 26.23H2.95M3.79 28.74h32.52M35.11 31.24H5.1M6.53 33.62h27.16M39.18 16.29H1.02M32.04 36.12H8.14M10.07 38.5h20.15M27.9 41.01H12.37M15.11 43.63h9.99M10.68 10.52l.65.74"/><path fill="none" stroke="#fff" stroke-miterlimit="3.864" stroke-width=".344" d="M4.23 10.53l-.66.71"/><path d="M2.73 4.86a1.21 1.21 0 0 1 .21-.75A1.22 1.22 0 0 1 3.68 4h3.07c.25 0 .31.18.59.18s.33-.18.6-.18h3.69a.73.73 0 0 1 .57.15.94.94 0 0 1 .18.66v.68s1.13-.06 1.16.47-1.16.57-1.16.57v2.92s1.16-.15 1.13.51-1.13.5-1.13.5V11a1.41 1.41 0 0 1-.15.69 1.49 1.49 0 0 1-1.13.27H3.77a1.23 1.23 0 0 1-.86-.15 1.22 1.22 0 0 1-.18-.72v-.54s-1.19.12-1.19-.57 1.19-.57 1.19-.57V6.53s-1.16.15-1.2-.53 1.19-.57 1.19-.57v-.57z" fill="#fff" fill-rule="evenodd"/><path d="M2.73 4.86a1.21 1.21 0 0 1 .21-.75A1.22 1.22 0 0 1 3.68 4h3.07c.25 0 .31.18.59.18s.33-.18.6-.18h3.69a.73.73 0 0 1 .57.15.94.94 0 0 1 .18.66v.68s1.13-.06 1.16.47-1.16.57-1.16.57v2.92s1.16-.15 1.13.51-1.13.5-1.13.5V11a1.41 1.41 0 0 1-.15.69 1.49 1.49 0 0 1-1.13.27H3.77a1.23 1.23 0 0 1-.86-.15 1.22 1.22 0 0 1-.18-.72v-.54s-1.19.12-1.19-.57 1.19-.57 1.19-.57V6.53s-1.16.15-1.2-.53 1.19-.57 1.19-.57v-.57z" fill="none" stroke="#000" stroke-miterlimit="3.864" stroke-width=".432"/><path fill="none" stroke="#000" stroke-miterlimit="3.864" stroke-width=".344" d="M7.36 4.22v7.12"/><path d="M7.45 11.35a.58.58 0 1 1-.58.58.58.58 0 0 1 .58-.58" fill="#fff" fill-rule="evenodd"/><circle cx="7.45" cy="11.94" r=".58" fill="none" stroke="#000" stroke-miterlimit="3.864" stroke-width=".432"/><path fill="none" stroke="#000" stroke-miterlimit="3.864" stroke-width=".344" d="M4.19 10.58l-.66.71M4.1 4v5.75a2 2 0 0 0 .12.89.92.92 0 0 0 .83.09s1 .09 1.67.21a1.79 1.79 0 0 1 .66.39"/><path d="M4.1 4a1.72 1.72 0 0 0-.74 1v5.6a1.2 1.2 0 0 0 .15.71 1.24 1.24 0 0 0 .86.18 6.37 6.37 0 0 1 1.61 0 2.18 2.18 0 0 1 .86.33M10.77 4.07a1.71 1.71 0 0 1 .74 1v5.6a1.19 1.19 0 0 1-.15.72 1.25 1.25 0 0 1-.86.18 6.41 6.41 0 0 0-1.61 0 2.25 2.25 0 0 0-.86.33" fill="none" stroke="#000" stroke-miterlimit="3.864" stroke-width=".344"/><path d="M10.77 4.07v5.72a1.22 1.22 0 0 1-.12.89 1.15 1.15 0 0 1-.83.09s-1 .09-1.67.21a1.76 1.76 0 0 0-.65.39" fill="none" stroke="#000" stroke-miterlimit="3.864" stroke-width=".344"/><path d="M15.21 4.86a1.22 1.22 0 0 1 .21-.75 1.22 1.22 0 0 1 .74-.11h3.07c.25 0 .31.21.6.21s.32-.21.59-.21h3.69a.73.73 0 0 1 .57.15 1 1 0 0 1 .18.66v.68S26 5.43 26 6s-1.16.57-1.16.57v2.88S26 9.3 26 10s-1.13.5-1.13.5v.5a1.44 1.44 0 0 1-.15.69 1.49 1.49 0 0 1-1.13.27h-7.34a1.23 1.23 0 0 1-.86-.15 1.21 1.21 0 0 1-.18-.72v-.54S14 10.67 14 10s1.19-.57 1.19-.57v-2.9S14 6.68 14 6s1.19-.57 1.19-.57v-.57z" fill="#fff" fill-rule="evenodd"/><path d="M15.21 4.86a1.22 1.22 0 0 1 .21-.75 1.22 1.22 0 0 1 .74-.11h3.07c.25 0 .31.21.6.21s.32-.21.59-.21h3.69a.73.73 0 0 1 .57.15 1 1 0 0 1 .18.66v.68S26 5.43 26 6s-1.16.57-1.16.57v2.88S26 9.3 26 10s-1.13.5-1.13.5v.5a1.44 1.44 0 0 1-.15.69 1.49 1.49 0 0 1-1.13.27h-7.34a1.23 1.23 0 0 1-.86-.15 1.21 1.21 0 0 1-.18-.72v-.54S14 10.67 14 10s1.19-.57 1.19-.57v-2.9S14 6.68 14 6s1.19-.57 1.19-.57v-.57z" fill="none" stroke="#000" stroke-miterlimit="3.864" stroke-width=".432"/><path fill="none" stroke="#000" stroke-miterlimit="3.864" stroke-width=".344" d="M19.84 4.22v7.12"/><path d="M19.93 11.35a.58.58 0 1 1-.58.58.58.58 0 0 1 .58-.58" fill="#fff" fill-rule="evenodd"/><circle cx="19.93" cy="11.94" r=".58" fill="none" stroke="#000" stroke-miterlimit="3.864" stroke-width=".432"/><path fill="none" stroke="#000" stroke-miterlimit="3.864" stroke-width=".344" d="M16.67 10.58l-.65.71M16.58 4v5.75a2 2 0 0 0 .12.89.92.92 0 0 0 .83.09s1 .09 1.67.21a1.79 1.79 0 0 1 .66.39"/><path d="M16.58 4a1.72 1.72 0 0 0-.74 1v5.6a1.2 1.2 0 0 0 .15.71 1.24 1.24 0 0 0 .86.18 6.35 6.35 0 0 1 1.61 0 2.18 2.18 0 0 1 .86.33M23.25 4.07A1.71 1.71 0 0 1 24 5v5.6a1.19 1.19 0 0 1-.15.72 1.24 1.24 0 0 1-.86.18 6.4 6.4 0 0 0-1.61 0 2.26 2.26 0 0 0-.86.33" fill="none" stroke="#000" stroke-miterlimit="3.864" stroke-width=".344"/><path d="M23.25 4.07v5.72a1.24 1.24 0 0 1-.12.89 1.15 1.15 0 0 1-.83.09s-1 .09-1.67.21a1.76 1.76 0 0 0-.66.39" fill="none" stroke="#000" stroke-miterlimit="3.864" stroke-width=".344"/><path d="M27.69 4.86a1.22 1.22 0 0 1 .21-.75 1.22 1.22 0 0 1 .74-.11h3.07c.25 0 .31.21.6.21s.32-.21.59-.21h3.69a.73.73 0 0 1 .57.15.94.94 0 0 1 .18.66v.68s1.13-.06 1.16.47-1.16.57-1.16.57v2.92s1.16-.15 1.13.51-1.13.5-1.13.5V11a1.43 1.43 0 0 1-.15.69 1.5 1.5 0 0 1-1.13.27h-7.33a1.24 1.24 0 0 1-.86-.15 1.22 1.22 0 0 1-.18-.72v-.54s-1.19.12-1.19-.57 1.19-.57 1.19-.57V6.53s-1.16.15-1.19-.53 1.19-.57 1.19-.57v-.57z" fill="#fff" fill-rule="evenodd"/><path d="M27.69 4.86a1.22 1.22 0 0 1 .21-.75 1.22 1.22 0 0 1 .74-.11h3.07c.25 0 .31.21.6.21s.32-.21.59-.21h3.69a.73.73 0 0 1 .57.15.94.94 0 0 1 .18.66v.68s1.13-.06 1.16.47-1.16.57-1.16.57v2.92s1.16-.15 1.13.51-1.13.5-1.13.5V11a1.43 1.43 0 0 1-.15.69 1.5 1.5 0 0 1-1.13.27h-7.33a1.24 1.24 0 0 1-.86-.15 1.22 1.22 0 0 1-.18-.72v-.54s-1.19.12-1.19-.57 1.19-.57 1.19-.57V6.53s-1.16.15-1.19-.53 1.19-.57 1.19-.57v-.57z" fill="none" stroke="#000" stroke-miterlimit="3.864" stroke-width=".432"/><path fill="none" stroke="#000" stroke-miterlimit="3.864" stroke-width=".344" d="M32.33 4.22v7.12"/><path d="M32.42 11.35a.58.58 0 1 1-.58.58.58.58 0 0 1 .58-.58" fill="#fff" fill-rule="evenodd"/><circle cx="32.42" cy="11.94" r=".58" fill="none" stroke="#000" stroke-miterlimit="3.864" stroke-width=".432"/><path fill="none" stroke="#000" stroke-miterlimit="3.864" stroke-width=".344" d="M29.16 10.58l-.66.71M29.06 4v5.75a2 2 0 0 0 .12.89.92.92 0 0 0 .84.09s1 .09 1.67.21a1.8 1.8 0 0 1 .65.39"/><path d="M29.06 4a1.72 1.72 0 0 0-.74 1v5.6a1.2 1.2 0 0 0 .15.71 1.24 1.24 0 0 0 .86.18 6.35 6.35 0 0 1 1.61 0 2.18 2.18 0 0 1 .86.33M35.74 4.07a1.71 1.71 0 0 1 .74 1v5.6a1.21 1.21 0 0 1-.15.72 1.24 1.24 0 0 1-.86.18 6.41 6.41 0 0 0-1.61 0 2.24 2.24 0 0 0-.86.33" fill="none" stroke="#000" stroke-miterlimit="3.864" stroke-width=".344"/><path d="M35.74 4.07v5.72a1.23 1.23 0 0 1-.12.89 1.15 1.15 0 0 1-.83.09s-1 .09-1.67.21a1.76 1.76 0 0 0-.66.39" fill="none" stroke="#000" stroke-miterlimit="3.864" stroke-width=".344"/><path d="M7 5.8v.08a1.78 1.78 0 0 0-.61 1.24C6.07 8.37 6 8.6 5.89 8.6a4.32 4.32 0 0 1-.52-1.51 2.18 2.18 0 0 0-.61-1.22.1.1 0 0 0 0-.07h1a.08.08 0 0 1 0 .1 3.29 3.29 0 0 0-.13.44 2.58 2.58 0 0 0 .37.93 2.83 2.83 0 0 0 .41-1.05.79.79 0 0 0-.18-.34V5.8a6.87 6.87 0 0 1 .77 0M9.07 5.7h.36c0 .13.1.27.1.34v.27h-.1C9.24 6.31 9.15 6 9 6h-.34a.78.78 0 0 0-.13.46v.25a.21.21 0 0 0 .25.22 1.68 1.68 0 0 0 .51-.3.49.49 0 0 1 .12.44c0 .14 0 .37-.15.37a1.35 1.35 0 0 0-.51-.29.26.26 0 0 0-.2.22v.7a.3.3 0 0 0 .33.32.69.69 0 0 0 .67-.49h.13a1.15 1.15 0 0 1 .08.29v.27a.7.7 0 0 1-.3.15H7.9s-.08-.08-.1-.15A2.07 2.07 0 0 1 8.07 8V6.48a1 1 0 0 0-.25-.61V5.8h1a.81.81 0 0 0 .23-.1M20.66 5.72h1.24v.19a.51.51 0 0 0-.35.4v1.8c0 .4.36.26.36.44v.23h-1.25v-.24c0-.17.34-.06.34-.43v-1.8a.48.48 0 0 0-.34-.41v-.18M34.87 5.67a.46.46 0 0 1 .19.5.3.3 0 0 0 0 .28h-.16a2.12 2.12 0 0 0-.33-.39h-.34c-.13.21-.11.07-.11.28 0 .49 1.19.68 1.19 1.58a.88.88 0 0 1-.56.8h-.82a2.53 2.53 0 0 1 0-.91c0-.09 0-.17.08-.17s.15.83.66.83a.37.37 0 0 0 .33-.33c0-.69-1.25-.69-1.25-1.72a.66.66 0 0 1 .47-.67h.39a2.14 2.14 0 0 1 .25-.08M19.75 8.39h-.11a2.92 2.92 0 0 1-.64-.92 1.45 1.45 0 0 0 .66-1.06.74.74 0 0 0-.57-.74h-1.74a.34.34 0 0 0 0 .21.72.72 0 0 1 .34.54v1.7c0 .1-.27.31-.27.44a.8.8 0 0 1 0 .24h1a1.59 1.59 0 0 0 0-.23c0-.09-.17-.21-.21-.41a.86.86 0 0 1 0-.4h.19a2.63 2.63 0 0 0 .92 1h.41a1.42 1.42 0 0 0 0-.4M33.37 8.45a2.45 2.45 0 0 0 .33.25v.08h-1a.36.36 0 0 1-.08-.14l.2-.33a4 4 0 0 1-.34-.4 1.69 1.69 0 0 0-.38 0 1.34 1.34 0 0 0-.21.33c-.06.1 0 .11.22.33a.62.62 0 0 1-.07.18H30v-.08a1.06 1.06 0 0 0 .33-.61V6.59a.74.74 0 0 0-.17-.59 1 1 0 0 0-.5.44h-.11V6.2c0-.06 0-.69.28-.69a2.2 2.2 0 0 0 .56.17h.71a1.49 1.49 0 0 1 .36-.11c.12 0 .17.09.17.22a1.31 1.31 0 0 1-.25.67A1.56 1.56 0 0 1 31 6h-.15a9.55 9.55 0 0 0 0 1.85 3.44 3.44 0 0 0 0 .39.34.34 0 0 0 .2.33c.41 0 .52-1 .72-1.49 0 0 .4-1.44.51-1.74z" fill-rule="evenodd"/><path d="M18.38 6h.38a.9.9 0 0 1 .33.65.58.58 0 0 1 0 .13.89.89 0 0 1-.31.39h-.38a.63.63 0 0 1-.11-.27v-.49a.47.47 0 0 1 .09-.41M32.34 6.68a1.73 1.73 0 0 1 .29.75.58.58 0 0 0 0 .19H32a2.84 2.84 0 0 1 .12-.93h.17z" fill="#fff" fill-rule="evenodd"/></g></svg>